<svg xmlns="http://www.w3.org/2000/svg" viewBox="0 0 400 600" width="400" height="600">
  <rect width="400" height="600" fill="#F7F3EB"/>
  <text x="40" y="84" font-family="Georgia, 'Times New Roman', serif" font-size="17" letter-spacing="2" fill="#2B2620" opacity="0.55">THE BIG IDEAS IN</text>
  <text x="40" y="132" font-family="Georgia, 'Times New Roman', serif" font-size="38" font-weight="600" fill="#2B2620">Sapiens</text>
  <text x="40" y="174" font-family="Georgia, 'Times New Roman', serif" font-size="38" font-weight="600" fill="#2B2620">A Brief History</text>
  <text x="40" y="216" font-family="Georgia, 'Times New Roman', serif" font-size="38" font-weight="600" fill="#2B2620">of Humankind</text>
  <g fill="none" stroke="#8F4A12" stroke-width="5" stroke-linecap="round" stroke-linejoin="round">
    <line x1="200" y1="385" x2="200" y2="290"/>
    <line x1="200" y1="385" x2="126" y2="326"/>
    <line x1="200" y1="385" x2="107" y2="406"/>
    <line x1="200" y1="385" x2="159" y2="471"/>
    <line x1="200" y1="385" x2="241" y2="471"/>
    <line x1="200" y1="385" x2="293" y2="406"/>
    <line x1="200" y1="385" x2="274" y2="326"/>
    <polygon points="200,290 274,326 293,406 241,471 159,471 107,406 126,326" stroke-width="3"/>
    <circle cx="200" cy="290" r="9" fill="#8F4A12" stroke="none"/>
    <circle cx="126" cy="326" r="9" fill="#8F4A12" stroke="none"/>
    <circle cx="107" cy="406" r="9" fill="#8F4A12" stroke="none"/>
    <circle cx="159" cy="471" r="9" fill="#8F4A12" stroke="none"/>
    <circle cx="241" cy="471" r="9" fill="#8F4A12" stroke="none"/>
    <circle cx="293" cy="406" r="9" fill="#8F4A12" stroke="none"/>
    <circle cx="274" cy="326" r="9" fill="#8F4A12" stroke="none"/>
    <circle cx="200" cy="385" r="21" fill="#8F4A12" stroke="none"/>
  </g>
  <rect x="0" y="576" width="400" height="24" fill="#8F4A12"/>
</svg>
