<svg xmlns="http://www.w3.org/2000/svg" viewBox="0 0 400 600" width="400" height="600">
<rect width="400" height="600" fill="#F7F3EB"/>
<text x="40" y="84" font-family="Georgia, 'Times New Roman', serif" font-size="17" letter-spacing="2" fill="#2B2620" opacity="0.55">THE BIG IDEAS IN</text>
<text x="40" y="132" font-family="Georgia, 'Times New Roman', serif" font-size="32" font-weight="600" fill="#2B2620">Flow: The</text>
<text x="40" y="168" font-family="Georgia, 'Times New Roman', serif" font-size="32" font-weight="600" fill="#2B2620">Psychology of</text>
<text x="40" y="204" font-family="Georgia, 'Times New Roman', serif" font-size="32" font-weight="600" fill="#2B2620">Optimal Experience</text>
<path d="M 100,404 C 148,389 158,362 200,356 C 242,350 252,322 300,312" fill="none" stroke="#2447C2" stroke-width="6" stroke-linecap="round"/>
<path d="M 100,430 C 148,415 158,388 200,382 C 242,376 252,348 300,338" fill="none" stroke="#2447C2" stroke-width="6" stroke-linecap="round"/>
<path d="M 100,456 C 148,441 158,414 200,408 C 242,402 252,374 300,364" fill="none" stroke="#2447C2" stroke-width="6" stroke-linecap="round"/>
<circle cx="200" cy="382" r="6" fill="#2447C2"/>
<rect x="0" y="576" width="400" height="24" fill="#2447C2"/>
</svg>
