<svg xmlns="http://www.w3.org/2000/svg" viewBox="0 0 400 600" width="400" height="600">
  <rect width="400" height="600" fill="#F7F3EB"/>
  <text x="40" y="84" font-family="Georgia, 'Times New Roman', serif" font-size="17" letter-spacing="2" fill="#2B2620" opacity="0.55">THE BIG IDEAS IN</text>
  <text x="40" y="132" font-family="Georgia, 'Times New Roman', serif" font-size="46" font-weight="600" fill="#2B2620">The Selfish</text>
  <text x="40" y="182" font-family="Georgia, 'Times New Roman', serif" font-size="46" font-weight="600" fill="#2B2620">Gene</text>
  <g fill="none" stroke="#0B7F58" stroke-linecap="round" stroke-linejoin="round">
    <polyline points="200,300 232,315 245,330 232,345 200,360 168,375 155,390 168,405 200,420 232,435 245,450 232,465 200,480" stroke-width="7"/>
    <polyline points="200,300 168,315 155,330 168,345 200,360 232,375 245,390 232,405 200,420 168,435 155,450 168,465 200,480" stroke-width="7"/>
    <line x1="232" y1="315" x2="168" y2="315" stroke-width="6"/>
    <line x1="232" y1="345" x2="168" y2="345" stroke-width="6"/>
    <line x1="168" y1="375" x2="232" y2="375" stroke-width="6"/>
    <line x1="168" y1="405" x2="232" y2="405" stroke-width="6"/>
    <line x1="232" y1="435" x2="168" y2="435" stroke-width="6"/>
    <line x1="232" y1="465" x2="168" y2="465" stroke-width="6"/>
  </g>
  <rect x="0" y="576" width="400" height="24" fill="#0B7F58"/>
</svg>
