<svg xmlns="http://www.w3.org/2000/svg" viewBox="0 0 400 600" width="400" height="600">
  <rect width="400" height="600" fill="#F7F3EB"/>
  <text x="40" y="84" font-family="Georgia, 'Times New Roman', serif" font-size="17" letter-spacing="2" fill="#2B2620" opacity="0.55">THE BIG IDEAS IN</text>
  <text x="40" y="132" font-family="Georgia, 'Times New Roman', serif" font-size="46" font-weight="600" fill="#2B2620">The E-Myth</text>
  <text x="40" y="182" font-family="Georgia, 'Times New Roman', serif" font-size="46" font-weight="600" fill="#2B2620">Revisited</text>

  <g fill="none" stroke="#0E7C96" stroke-width="6" stroke-linecap="round" stroke-linejoin="round">
    <!-- the prototype, replicated into many identical units -->
    <rect x="108" y="312" width="44" height="44" fill="#0E7C96"/>
    <polygon points="100,312 130,286 160,312" fill="#0E7C96" stroke="none"/>
    <rect x="178" y="312" width="44" height="44"/>
    <polyline points="170,312 200,286 230,312"/>
    <rect x="248" y="312" width="44" height="44"/>
    <polyline points="240,312 270,286 300,312"/>
    <rect x="108" y="384" width="44" height="44"/>
    <polyline points="100,384 130,358 160,384"/>
    <rect x="178" y="384" width="44" height="44"/>
    <polyline points="170,384 200,358 230,384"/>
    <rect x="248" y="384" width="44" height="44"/>
    <polyline points="240,384 270,358 300,384"/>
    <rect x="108" y="456" width="44" height="44"/>
    <polyline points="100,456 130,430 160,456"/>
    <rect x="178" y="456" width="44" height="44"/>
    <polyline points="170,456 200,430 230,456"/>
    <rect x="248" y="456" width="44" height="44"/>
    <polyline points="240,456 270,430 300,456"/>
  </g>

  <text x="40" y="556" font-family="Georgia, 'Times New Roman', serif" font-size="22" fill="#2B2620" opacity="0.7">Michael E. Gerber</text>
  <rect x="0" y="576" width="400" height="24" fill="#0E7C96"/>
</svg>
