<svg xmlns="http://www.w3.org/2000/svg" viewBox="0 0 400 600" width="400" height="600">
<rect width="400" height="600" fill="#F7F3EB"/>
<text x="40" y="84" font-family="Georgia, 'Times New Roman', serif" font-size="17" letter-spacing="2" fill="#2B2620" opacity="0.55">THE BIG IDEAS IN</text>
<text x="40" y="132" font-family="Georgia, 'Times New Roman', serif" font-size="38" font-weight="600" fill="#2B2620">Difficult</text>
<text x="40" y="174" font-family="Georgia, 'Times New Roman', serif" font-size="38" font-weight="600" fill="#2B2620">Conversations</text>
<path d="M 108,300 L 292,300 Q 314,300 314,322 L 314,418 Q 314,440 292,440 L 185,440 L 150,478 L 150,440 L 108,440 Q 86,440 86,418 L 86,322 Q 86,300 108,300 Z" fill="none" stroke="#0E7C96" stroke-width="7" stroke-linejoin="round"/>
<circle cx="120" cy="346" r="4" fill="#0E7C96"/>
<line x1="136" y1="346" x2="286" y2="346" stroke="#0E7C96" stroke-width="6" stroke-linecap="round"/>
<circle cx="120" cy="375" r="4" fill="#0E7C96"/>
<line x1="136" y1="375" x2="262" y2="375" stroke="#0E7C96" stroke-width="6" stroke-linecap="round"/>
<circle cx="120" cy="404" r="4" fill="#0E7C96"/>
<line x1="136" y1="404" x2="238" y2="404" stroke="#0E7C96" stroke-width="6" stroke-linecap="round"/>
<text x="40" y="556" font-family="Georgia, 'Times New Roman', serif" font-size="18" fill="#2B2620" opacity="0.7">Stone, Patton &amp; Heen</text>
<rect x="0" y="576" width="400" height="24" fill="#0E7C96"/>
</svg>
