<svg xmlns="http://www.w3.org/2000/svg" viewBox="0 0 400 600" width="400" height="600">
  <rect width="400" height="600" fill="#F7F3EB"/>
  <text x="40" y="84" font-family="Georgia, 'Times New Roman', serif" font-size="17" letter-spacing="2" fill="#2B2620" opacity="0.55">THE BIG IDEAS IN</text>
  <text x="40" y="132" font-family="Georgia, 'Times New Roman', serif" font-size="46" font-weight="600" fill="#2B2620">Man's Search</text>
  <text x="40" y="182" font-family="Georgia, 'Times New Roman', serif" font-size="46" font-weight="600" fill="#2B2620">for Meaning</text>

  <!-- MOTIF: a path leading toward a guiding star (a future to walk toward) -->
  <polygon points="200,270 207,290 228,291 211,304 218,324 200,312 182,324 189,304 171,291 193,290" fill="#2447C2"/>
  <path d="M155 488 C175 430 190 372 198 338" fill="none" stroke="#2447C2" stroke-width="7" stroke-linecap="round"/>
  <path d="M255 488 C235 430 215 372 202 338" fill="none" stroke="#2447C2" stroke-width="7" stroke-linecap="round"/>
  <line x1="200" y1="478" x2="200" y2="462" stroke="#2447C2" stroke-width="6" stroke-linecap="round"/>
  <line x1="200" y1="440" x2="200" y2="424" stroke="#2447C2" stroke-width="6" stroke-linecap="round"/>
  <line x1="200" y1="404" x2="200" y2="390" stroke="#2447C2" stroke-width="6" stroke-linecap="round"/>

  <text x="40" y="556" font-family="Georgia, 'Times New Roman', serif" font-size="22" fill="#2B2620" opacity="0.7">VIKTOR E. FRANKL</text>
  <rect x="0" y="576" width="400" height="24" fill="#2447C2"/>
</svg>
