<svg xmlns="http://www.w3.org/2000/svg" viewBox="0 0 400 600" width="400" height="600">
<rect width="400" height="600" fill="#F7F3EB"/>
<text x="40" y="84" font-family="Georgia, 'Times New Roman', serif" font-size="17" letter-spacing="2" fill="#2B2620" opacity="0.55">THE BIG IDEAS IN</text>
<text x="40" y="132" font-family="Georgia, 'Times New Roman', serif" font-size="38" font-weight="600" fill="#2B2620">Four Thousand</text>
<text x="40" y="174" font-family="Georgia, 'Times New Roman', serif" font-size="38" font-weight="600" fill="#2B2620">Weeks</text>
<circle cx="100" cy="306" r="5" fill="#6B3FC9"/>
<circle cx="132" cy="306" r="5" fill="#6B3FC9"/>
<circle cx="164" cy="306" r="5" fill="#6B3FC9"/>
<circle cx="196" cy="306" r="5" fill="#6B3FC9"/>
<circle cx="228" cy="306" r="5" fill="#6B3FC9"/>
<circle cx="260" cy="306" r="5" fill="#6B3FC9"/>
<circle cx="292" cy="306" r="5" fill="#6B3FC9"/>
<circle cx="324" cy="306" r="5" fill="#6B3FC9"/>
<circle cx="100" cy="336" r="5" fill="#6B3FC9"/>
<circle cx="132" cy="336" r="5" fill="#6B3FC9"/>
<circle cx="164" cy="336" r="5" fill="#6B3FC9"/>
<circle cx="196" cy="336" r="5" fill="#6B3FC9"/>
<circle cx="228" cy="336" r="5" fill="#6B3FC9"/>
<circle cx="260" cy="336" r="5" fill="#6B3FC9"/>
<circle cx="292" cy="336" r="5" fill="#6B3FC9"/>
<circle cx="324" cy="336" r="5" fill="#6B3FC9"/>
<circle cx="100" cy="366" r="5" fill="#6B3FC9"/>
<circle cx="132" cy="366" r="5" fill="#6B3FC9"/>
<circle cx="164" cy="366" r="5" fill="#6B3FC9"/>
<circle cx="196" cy="366" r="5" fill="#6B3FC9"/>
<circle cx="228" cy="366" r="5" fill="#6B3FC9"/>
<circle cx="260" cy="366" r="5" fill="#6B3FC9"/>
<circle cx="292" cy="366" r="5" fill="#6B3FC9"/>
<circle cx="324" cy="366" r="5" fill="#6B3FC9"/>
<circle cx="100" cy="396" r="5" fill="#6B3FC9"/>
<circle cx="132" cy="396" r="5" fill="#6B3FC9"/>
<circle cx="164" cy="396" r="5" fill="#6B3FC9"/>
<circle cx="196" cy="396" r="5" fill="#6B3FC9"/>
<circle cx="228" cy="396" r="5" fill="#6B3FC9"/>
<circle cx="260" cy="396" r="5" fill="#6B3FC9"/>
<circle cx="292" cy="396" r="5" fill="#6B3FC9"/>
<circle cx="324" cy="396" r="5" fill="#6B3FC9"/>
<circle cx="100" cy="426" r="5" fill="#6B3FC9"/>
<circle cx="132" cy="426" r="5" fill="#6B3FC9"/>
<circle cx="164" cy="426" r="5" fill="#6B3FC9"/>
<circle cx="196" cy="426" r="5" fill="#6B3FC9"/>
<circle cx="228" cy="426" r="5" fill="#6B3FC9"/>
<circle cx="260" cy="426" r="5" fill="#6B3FC9"/>
<circle cx="292" cy="426" r="5" fill="#6B3FC9"/>
<circle cx="324" cy="426" r="5" fill="#6B3FC9"/>
<circle cx="100" cy="456" r="5" fill="none" stroke="#6B3FC9" stroke-width="2.5"/>
<circle cx="132" cy="456" r="5" fill="none" stroke="#6B3FC9" stroke-width="2.5"/>
<circle cx="164" cy="456" r="5" fill="none" stroke="#6B3FC9" stroke-width="2.5"/>
<circle cx="196" cy="456" r="5" fill="none" stroke="#6B3FC9" stroke-width="2.5"/>
<circle cx="228" cy="456" r="5" fill="none" stroke="#6B3FC9" stroke-width="2.5"/>
<circle cx="260" cy="456" r="5" fill="none" stroke="#6B3FC9" stroke-width="2.5"/>
<circle cx="292" cy="456" r="5" fill="none" stroke="#6B3FC9" stroke-width="2.5"/>
<circle cx="324" cy="456" r="5" fill="none" stroke="#6B3FC9" stroke-width="2.5"/>
<circle cx="100" cy="486" r="5" fill="none" stroke="#6B3FC9" stroke-width="2.5"/>
<circle cx="132" cy="486" r="5" fill="none" stroke="#6B3FC9" stroke-width="2.5"/>
<circle cx="164" cy="486" r="5" fill="none" stroke="#6B3FC9" stroke-width="2.5"/>
<circle cx="196" cy="486" r="5" fill="none" stroke="#6B3FC9" stroke-width="2.5"/>
<circle cx="228" cy="486" r="5" fill="none" stroke="#6B3FC9" stroke-width="2.5"/>
<circle cx="260" cy="486" r="5" fill="none" stroke="#6B3FC9" stroke-width="2.5"/>
<circle cx="292" cy="486" r="5" fill="none" stroke="#6B3FC9" stroke-width="2.5"/>
<circle cx="324" cy="486" r="5" fill="none" stroke="#6B3FC9" stroke-width="2.5"/>
<text x="40" y="556" font-family="Georgia, 'Times New Roman', serif" font-size="22" fill="#2B2620" opacity="0.7">Oliver Burkeman</text>
<rect x="0" y="576" width="400" height="24" fill="#6B3FC9"/>
</svg>
